<?xml version="1.0" standalone="yes"?>

<svg version="1.1" viewBox="0.0 0.0 960.0 540.0" fill="none" stroke="none" stroke-linecap="square" stroke-miterlimit="10" xmlns="http://www.w3.org/2000/svg" xmlns:xlink="http://www.w3.org/1999/xlink"><clipPath id="p.0"><path d="m0 0l960.0 0l0 540.0l-960.0 0l0 -540.0z" clip-rule="nonzero"></path></clipPath><g clip-path="url(#p.0)"><path fill="#4285f4" d="m0 0l960.0 0l0 540.0l-960.0 0z" fill-rule="evenodd"></path><path fill="#ffffff" d="m960.0 540.0026l0 -94.236206l-94.236206 94.236206z" fill-rule="evenodd"></path><path fill="#ffffff" fill-opacity="0.6808" d="m960.0 445.76117l-78.52985 0l0 0c-4.1655884 0 -8.1605835 1.6547546 -11.106079 4.600281c-2.9454956 2.9454956 -4.600281 6.94046 -4.600281 11.106049l0 78.52988l94.236206 0z" fill-rule="evenodd"></path><path fill="#000000" fill-opacity="0.0" d="m32.725285 162.25197l894.5512 0l0 215.49605l-894.5512 0z" fill-rule="evenodd"></path><path fill="#ffffff" d="m359.23917 296.62805l-12.5 0l-33.3125 -44.312515l-9.5625 8.500015l0 35.8125l-10.625 0l0 -91.375015l10.625 0l0 45.3125l41.4375 -45.3125l12.5625 0l-36.75 39.6875l38.125 51.687515z" fill-rule="nonzero"></path><path fill="#ffffff" d="m381.16104 285.9093q0 5.28125 -2.5 8.203125q-2.5 2.90625 -7.0625 2.90625q-3.484375 0 -5.828125 -1.84375l-0.15625 0q0.15625 1.203125 0.15625 5.34375l0 5.71875l-3.28125 0l0 -20.609375q0 -5.1875 2.4375 -7.984375q2.453125 -2.8125 7.03125 -2.8125q4.28125 0 6.734375 2.96875q2.46875 2.953125 2.46875 8.109375zm-9.359375 -8.328125q-3.09375 0 -4.5625 2.03125q-1.46875 2.015625 -1.46875 6.09375l0 6.609375q2.375 1.984375 5.953125 1.984375q3.109375 0 4.59375 -2.03125q1.484375 -2.03125 1.484375 -6.359375q0 -4.1875 -1.40625 -6.25q-1.40625 -2.078125 -4.59375 -2.078125zm18.128906 -2.359375l0 15.109375q0 2.03125 0.703125 3.03125q0.71875 0.984375 2.421875 0.984375q0.71875 0 1.703125 -0.125q0.984375 -0.140625 1.515625 -0.265625l0 2.46875q-0.609375 0.265625 -1.640625 0.421875q-1.015625 0.171875 -2.0 0.171875q-3.125 0 -4.546875 -1.640625q-1.40625 -1.640625 -1.40625 -4.9375l0 -15.21875l3.25 0zm24.898438 0l0 2.765625l-8.4375 0l0 12.078125q0 4.359375 4.0 4.359375q0.921875 0 1.875 -0.125q0.953125 -0.140625 1.484375 -0.265625l0 2.4375q-0.6875 0.296875 -1.765625 0.46875q-1.078125 0.171875 -2.015625 0.171875q-3.546875 0 -5.203125 -1.65625q-1.65625 -1.65625 -1.65625 -4.984375l0 -12.484375l-5.796875 0l0 -1.4375l2.890625 -1.328125l14.625 0zm7.5820312 0l0 15.109375q0 2.03125 0.703125 3.03125q0.71875 0.984375 2.421875 0.984375q0.71875 0 1.703125 -0.125q0.984375 -0.140625 1.515625 -0.265625l0 2.46875q-0.609375 0.265625 -1.640625 0.421875q-1.015625 0.171875 -2.0 0.171875q-3.125 0 -4.546875 -1.640625q-1.40625 -1.640625 -1.40625 -4.9375l0 -15.21875l3.25 0zm22.945312 0.03125l4.046875 0l-8.09375 9.421875l8.65625 11.953125l-3.921875 0l-7.0625 -9.84375l-2.625 2.203125l0 7.640625l-3.484375 0l0 -21.375l3.484375 0l0 5.53125q0 3.25 -0.234375 5.453125l9.234375 -10.984375zm26.675781 11.453125q0 3.0625 -1.203125 5.421875q-1.203125 2.34375 -3.4375 3.625q-2.234375 1.265625 -5.234375 1.265625q-4.59375 0 -7.171875 -2.8125q-2.578125 -2.8125 -2.578125 -7.78125q0 -11.203125 11.5625 -11.203125l9.75 0l0 2.765625l-5.15625 0q3.46875 3.265625 3.46875 8.71875zm-16.265625 -0.28125q0 3.796875 1.65625 5.84375q1.65625 2.03125 4.8125 2.03125q3.09375 0 4.765625 -1.921875q1.671875 -1.921875 1.671875 -5.484375q0 -5.265625 -3.390625 -8.90625l-1.28125 0q-4.328125 0 -6.28125 2.03125q-1.953125 2.03125 -1.953125 6.40625zm25.433594 -11.203125l0 15.109375q0 2.03125 0.703125 3.03125q0.71875 0.984375 2.421875 0.984375q0.71875 0 1.703125 -0.125q0.984375 -0.140625 1.515625 -0.265625l0 2.46875q-0.609375 0.265625 -1.640625 0.421875q-1.015625 0.171875 -2.0 0.171875q-3.125 0 -4.546875 -1.640625q-1.40625 -1.640625 -1.40625 -4.9375l0 -15.21875l3.25 0z" fill-rule="nonzero"></path><path fill="#ffffff" d="m598.6611 296.62805l-11.375 0l-20.625 -58.000015q-5.4375 -15.75 -6.8125 -21.375q-2.0625 8.6875 -6.5 21.25l-20.5 58.125015l-11.375 0l33.0 -91.375015l11.0625 0l33.125 91.375015z" fill-rule="nonzero"></path><path fill="#ffffff" d="m605.1923 275.2218l0 15.109375q0 2.03125 0.703125 3.03125q0.71875 0.984375 2.421875 0.984375q0.71875 0 1.703125 -0.125q0.984375 -0.140625 1.515625 -0.265625l0 2.46875q-0.609375 0.265625 -1.640625 0.421875q-1.015625 0.171875 -2.0 0.171875q-3.125 0 -4.546875 -1.640625q-1.40625 -1.640625 -1.40625 -4.9375l0 -15.21875l3.25 0zm-2.609375 -3.40625q0.53125 -1.40625 1.046875 -3.609375q0.515625 -2.21875 0.75 -3.828125l3.59375 0l0 0.453125q-0.34375 1.4375 -1.421875 3.765625q-1.0625 2.3125 -2.015625 3.796875l-1.953125 0l0 -0.578125zm31.085938 9.578125q0 7.921875 -2.390625 11.78125q-2.375 3.84375 -7.265625 3.84375q-4.6875 0 -7.125 -3.9375q-2.421875 -3.9375 -2.421875 -11.6875q0 -7.953125 2.390625 -11.78125q2.390625 -3.828125 7.15625 -3.828125q4.765625 0 7.203125 3.953125q2.453125 3.953125 2.453125 11.65625zm-9.65625 12.90625q3.203125 0 4.71875 -2.96875q1.53125 -2.984375 1.65625 -8.984375l-12.640625 0q0.078125 5.9375 1.53125 8.953125q1.46875 3.0 4.734375 3.0zm0 -25.796875q-3.140625 0 -4.609375 2.8125q-1.46875 2.796875 -1.65625 8.28125l12.59375 0q-0.21875 -5.484375 -1.703125 -8.28125q-1.484375 -2.8125 -4.625 -2.8125zm33.796875 17.40625q0 5.234375 -2.640625 8.171875q-2.640625 2.9375 -7.28125 2.9375q-2.875 0 -5.109375 -1.34375q-2.21875 -1.359375 -3.4375 -3.875q-1.203125 -2.515625 -1.203125 -5.890625q0 -5.234375 2.609375 -8.15625q2.625 -2.921875 7.265625 -2.921875q4.5 0 7.140625 2.984375q2.65625 2.984375 2.65625 8.09375zm-16.3125 0q0 4.09375 1.640625 6.25q1.640625 2.140625 4.828125 2.140625q3.171875 0 4.828125 -2.140625q1.65625 -2.140625 1.65625 -6.25q0 -4.09375 -1.65625 -6.203125q-1.65625 -2.125 -4.875 -2.125q-3.1875 0 -4.8125 2.09375q-1.609375 2.09375 -1.609375 6.234375zm24.160156 0.515625q0 2.640625 0.578125 3.9375q0.578125 1.28125 1.96875 2.0625q1.390625 0.78125 4.515625 1.453125q2.890625 0.625 4.171875 1.671875q1.28125 1.03125 1.28125 2.796875q0 1.296875 -0.53125 2.78125q-0.515625 1.484375 -1.828125 3.328125l-3.046875 0q1.046875 -1.359375 1.703125 -2.8125q0.65625 -1.4375 0.65625 -2.421875q0 -0.78125 -0.5 -1.234375q-0.5 -0.453125 -1.578125 -0.828125q-1.0625 -0.375 -2.953125 -0.734375q-3.984375 -0.71875 -5.890625 -3.1875q-1.90625 -2.484375 -1.90625 -6.765625q0 -5.59375 2.6875 -8.609375q2.703125 -3.03125 7.546875 -3.03125q1.546875 0 3.078125 0.328125q1.546875 0.3125 2.609375 0.78125l-1.046875 2.75q-2.53125 -0.984375 -4.765625 -0.984375q-3.4375 0 -5.09375 2.125q-1.65625 2.125 -1.65625 6.59375z" fill-rule="nonzero"></path></g></svg>

